<?xml version="1.0" encoding="UTF-8"?>
<!DOCTYPE svg PUBLIC "-//W3C//DTD SVG 1.1//EN" "http://www.w3.org/Graphics/SVG/1.1/DTD/svg11.dtd">
<!-- Creator: CorelDRAW X6 -->
<svg xmlns="http://www.w3.org/2000/svg" xml:space="preserve" width="25.0665mm" height="10.7272mm" version="1.1" style="shape-rendering:geometricPrecision; text-rendering:geometricPrecision; image-rendering:optimizeQuality; fill-rule:evenodd; clip-rule:evenodd"
viewBox="0 0 3169 1356"
 xmlns:xlink="http://www.w3.org/1999/xlink">
 <defs>
  <style type="text/css">
   <![CDATA[
    .fil0 {fill:#FEFEFE;fill-rule:nonzero}
   ]]>
  </style>
 </defs>
 <g id="Слой_x0020_1">
  <metadata id="CorelCorpID_0Corel-Layer"/>
  <path class="fil0" d="M678 0c187,0 357,76 479,199 123,123 199,292 199,479 0,187 -76,357 -199,479 -123,123 -292,199 -479,199 -187,0 -357,-76 -479,-199 -123,-123 -199,-292 -199,-479 0,-187 76,-357 199,-479 123,-123 292,-199 479,-199zm-488 741l-85 0c15,134 75,254 166,345 104,104 249,169 408,169 159,0 304,-65 408,-169 90,-90 151,-211 166,-345l-85 0c-35,0 -63,-28 -63,-63l0 0c0,-35 28,-63 63,-63l85 0c-15,-134 -75,-254 -166,-345 -104,-104 -249,-169 -408,-169 -159,0 -304,65 -408,169 -90,90 -151,211 -166,345l85 0c35,0 63,28 63,63l0 0c0,35 -28,63 -63,63zm2979 -600c0,19 -5,37 -14,53 -10,16 -23,29 -39,39 -16,9 -34,14 -53,14 -19,0 -37,-5 -53,-14 -16,-9 -29,-22 -39,-39 -10,-16 -14,-34 -14,-53 0,-19 5,-37 14,-53 10,-16 23,-29 39,-39 16,-9 34,-14 53,-14 19,0 37,5 53,14 16,9 29,22 39,39 10,16 14,34 14,53zm-21 0c0,-24 -8,-44 -25,-61 -17,-17 -37,-25 -61,-25 -24,0 -44,8 -61,25 -17,17 -25,37 -25,61 0,24 8,44 25,61 17,17 37,25 61,25 24,0 44,-8 61,-25 17,-17 25,-37 25,-61zm-134 -57l51 0c14,0 25,3 31,9 6,6 10,14 10,23 0,8 -2,14 -7,20 -5,6 -13,10 -23,12 4,2 8,3 10,5 3,3 6,6 9,12 0,0 6,11 18,33l-33 0c-11,-22 -18,-35 -22,-39 -4,-4 -7,-6 -11,-6 -1,0 -2,0 -3,0l0 45 -28 0 0 -114zm28 48l12 0c8,0 14,-1 17,-4 3,-3 5,-6 5,-10 0,-4 -2,-8 -5,-10 -3,-3 -9,-4 -16,-4l-13 0 0 29zm-1532 312l0 0 -2 0c-21,-6 -43,-17 -56,-35 -10,-15 -16,-31 -16,-49l0 -104c0,-7 1,-15 3,-22 2,-11 8,-22 16,-30 9,-11 23,-19 36,-25 19,-8 42,-10 63,-10 20,0 44,2 63,10 13,6 27,13 36,25 7,9 13,19 16,30 1,7 3,15 3,22l0 28c0,21 -17,38 -38,38l0 0c-21,0 -38,-17 -38,-38l-1 0 0 -18c0,-3 -1,-6 -1,-9 -1,-3 -3,-5 -5,-7 -3,-3 -8,-6 -13,-7 -7,-3 -17,-3 -25,-3 -7,0 -16,1 -23,3 -4,2 -9,4 -12,7 -2,2 -4,5 -5,8 -1,3 -1,6 -1,9l0 84c0,4 2,9 4,13 2,5 10,8 14,10l1 0 1 0c1,1 3,1 5,2 2,1 5,2 7,2 9,3 17,6 26,9 9,3 18,6 27,10 8,2 15,4 22,8 8,3 16,7 23,13 6,5 12,12 17,19 9,14 14,29 14,45l0 85c0,7 -1,15 -3,22 -2,11 -8,21 -16,30 -9,11 -23,19 -36,25 -19,8 -43,10 -63,10 -20,0 -44,-2 -63,-10 -13,-6 -27,-13 -36,-25 -7,-9 -13,-19 -16,-30 -1,-7 -3,-15 -3,-22l0 -27c0,-21 17,-38 38,-38l0 0c21,0 38,17 38,38l0 17c0,3 1,6 1,9 1,3 2,5 4,7 3,3 8,6 12,7 7,3 16,3 23,3 8,0 17,-1 25,-3 4,-2 9,-4 13,-7 2,-2 4,-4 5,-7 1,-3 1,-6 1,-8l0 -68c0,-4 -2,-9 -3,-13 -2,-5 -9,-8 -14,-9 -3,-1 -6,-2 -9,-3 -4,-1 -7,-2 -10,-4l-47 -16 -1 0zm1187 -269c-18,0 -34,15 -34,34l0 0c0,18 15,34 34,34l57 0 0 369c0,21 17,38 38,38l0 0c21,0 38,-17 38,-38l0 0 0 -369 62 0c18,0 34,-15 34,-34l0 0c0,-18 -15,-34 -34,-34l-194 0zm170 945c18,0 33,15 33,33l0 0c0,18 -15,33 -33,33l0 0 -100 0c-12,0 -25,-2 -36,-8 -10,-5 -18,-11 -25,-20 -7,-8 -12,-17 -15,-26 -3,-9 -5,-18 -5,-28l0 -310c0,-10 2,-19 5,-28 3,-10 9,-19 15,-26 7,-8 16,-15 25,-20 11,-6 24,-8 36,-8l100 0c18,0 33,15 33,33l0 0c0,18 -15,33 -33,33l-83 0c-7,0 -13,2 -17,7 -5,5 -7,12 -7,19l0 109 79 0c20,0 36,16 36,36l0 0c0,20 -16,36 -36,36l-79 0 0 109c0,7 2,13 7,18 5,5 10,7 17,7l83 0zm-1037 29c0,21 -17,38 -38,38l0 0c-21,0 -38,-17 -38,-38l0 -345c0,-3 -1,-6 -1,-9 -1,-3 -3,-5 -5,-7 -3,-3 -8,-6 -13,-7 -7,-3 -17,-3 -25,-3 -7,0 -17,1 -23,3 -4,2 -8,4 -11,7 -2,2 -4,5 -4,8 -1,3 -1,6 -1,9l0 344c0,21 -17,38 -38,38l0 0c-21,0 -38,-17 -38,-38l0 -345c0,-3 -1,-6 -1,-9 -1,-3 -3,-5 -5,-7 -3,-3 -8,-6 -13,-7 -7,-3 -17,-3 -25,-3 -7,0 -16,1 -23,3 -4,2 -9,4 -12,7 -2,2 -4,5 -5,8 -1,3 -1,6 -1,10l0 344c0,21 -17,38 -38,38l0 0c-21,0 -38,-17 -38,-38l0 -354c0,-7 1,-15 3,-22 2,-12 8,-22 16,-31 10,-11 23,-19 36,-24 19,-8 43,-10 63,-10 17,0 36,1 52,6 9,3 19,7 27,12 9,-5 18,-9 28,-12 16,-5 35,-6 52,-6 20,0 44,2 63,10 13,6 27,13 36,25 7,9 13,19 16,30 1,7 3,15 3,22l0 354 1 0zm310 -398c0,-21 17,-38 38,-38l0 0c21,0 38,17 38,38l0 344c0,3 0,6 1,9 1,3 2,5 4,7 3,3 8,6 12,7 7,3 16,3 23,3 8,0 17,-1 25,-3 4,-2 9,-4 13,-7 2,-2 4,-4 5,-7 1,-3 1,-6 1,-8l0 -345c0,-21 17,-38 38,-38l0 0c21,0 38,17 38,38l0 359 -1 0c0,6 -1,11 -2,17 -2,11 -8,21 -16,30 -9,11 -23,19 -36,25 -19,8 -43,10 -63,10 -20,0 -44,-2 -63,-10 -13,-6 -27,-13 -36,-25 -7,-9 -13,-19 -16,-30 -1,-7 -3,-15 -3,-22l0 -354zm507 71c0,21 -17,38 -38,38l0 0c-21,0 -38,-17 -38,-38l-1 0 0 -18c0,-3 -1,-6 -1,-9 -1,-3 -3,-5 -5,-7 -3,-3 -8,-6 -13,-7 -7,-3 -17,-3 -24,-3 -7,0 -16,1 -23,3 -4,2 -9,4 -12,7 -2,2 -4,5 -5,8 -1,3 -1,6 -1,9l0 84c0,4 2,9 4,13 2,5 10,8 14,10l1 0 1 0c1,1 3,1 5,2 2,1 5,2 7,2 9,3 17,6 26,9 9,3 18,6 27,10 7,2 15,4 22,8 8,3 16,7 23,13 6,5 12,12 17,19 9,14 14,29 14,45l0 85c0,7 -1,15 -3,22 -2,11 -8,21 -16,30 -9,11 -23,19 -36,25 -19,8 -43,10 -63,10 -20,0 -44,-2 -63,-10 -13,-6 -26,-13 -36,-25 -7,-9 -13,-19 -16,-30 -1,-7 -3,-15 -3,-22l0 -27c0,-21 17,-38 38,-38l0 0c21,0 38,17 38,38l0 0 0 17c0,3 1,6 1,9 1,3 2,5 4,7 3,3 8,6 12,7 7,3 16,3 23,3 8,0 17,-1 25,-3 4,-2 9,-4 13,-7 2,-2 4,-4 5,-7 1,-3 1,-6 1,-8l0 -68c0,-4 -2,-9 -3,-13 -2,-5 -9,-8 -14,-10 -3,-1 -6,-2 -9,-3 -4,-1 -7,-2 -10,-4l-47 -16 -1 0 0 0 -2 0c-21,-6 -43,-17 -56,-35 -10,-15 -16,-31 -16,-49l0 -104c0,-7 1,-15 3,-22 2,-11 8,-22 16,-30 9,-11 23,-19 36,-25 19,-8 43,-10 63,-10 20,0 44,2 63,10 13,6 27,13 36,25 7,9 13,19 16,30 1,7 3,15 3,22l0 28zm-159 -211c0,21 -17,38 -38,38l0 0c-21,0 -38,-17 -38,-38l0 0 0 -354c0,-7 1,-15 3,-22 2,-11 8,-22 16,-30 9,-11 23,-19 36,-25 19,-8 43,-10 63,-10 20,0 44,2 63,10 13,6 27,13 36,25 7,9 13,19 16,30 1,7 3,15 3,22l0 104c0,16 -4,30 -13,44 -8,13 -19,22 -33,29l75 216 -80 0 -66 -189c0,0 -1,0 -1,1 -4,1 -7,3 -11,4l-9 3c-4,1 -8,3 -12,5 -3,1 -5,3 -6,6 -2,2 -3,5 -3,8l0 125 0 0zm-114 0c0,21 -17,38 -38,38l0 0c-21,0 -38,-17 -38,-38l0 -165c-8,3 -16,6 -25,9l-38 13c-4,1 -8,3 -11,5 -3,2 -5,4 -8,7 -2,2 -2,5 -2,8l0 124 0 0c0,21 -17,38 -38,38l0 0c-21,0 -38,-17 -38,-38l0 -354c0,-7 1,-15 3,-22 2,-11 8,-22 16,-30 9,-11 23,-19 36,-25 19,-8 42,-10 63,-10 20,0 44,2 63,10 13,6 27,13 36,25 7,9 13,19 16,30 1,7 3,15 3,22l0 354zm-272 0c0,21 -17,38 -38,38l0 0c-21,0 -38,-17 -38,-38l0 -345c0,-3 -1,-6 -1,-9 -1,-3 -3,-5 -5,-7 -3,-3 -8,-6 -13,-7 -7,-3 -17,-3 -25,-3 -7,0 -17,1 -23,3 -4,2 -8,4 -11,7 -2,2 -4,5 -4,8 -1,3 -1,6 -1,9l0 344c0,21 -17,38 -38,38l0 0c-21,0 -38,-17 -38,-38l0 0 0 -345c0,-3 -1,-6 -1,-9 -1,-3 -3,-5 -5,-7 -3,-3 -8,-6 -13,-7 -7,-3 -17,-3 -24,-3 -7,0 -16,1 -23,3 -4,2 -9,4 -12,7 -2,2 -4,5 -5,8 -1,3 -1,6 -1,9l0 344c0,21 -17,38 -38,38l0 0c-21,0 -38,-17 -38,-38l0 -354c0,-7 1,-15 3,-22 2,-12 8,-22 16,-31 10,-11 23,-19 36,-24 19,-8 43,-10 63,-10 17,0 36,1 52,6 9,3 19,7 27,12 9,-5 18,-9 27,-12 16,-5 35,-6 52,-6 20,0 44,2 63,10 13,6 26,13 36,25 7,9 13,19 16,30 1,7 3,15 3,22l0 354zm0 183l0 310c0,7 -1,15 -3,22 -2,11 -8,21 -16,30 -9,11 -23,19 -36,25 -19,8 -43,10 -63,10 -20,0 -44,-2 -63,-10 -13,-6 -27,-13 -36,-25 -7,-9 -13,-19 -16,-30 -1,-7 -3,-15 -3,-22l0 -310c0,-7 1,-15 3,-22 2,-11 8,-22 16,-30 9,-11 23,-19 36,-25 19,-8 43,-10 63,-10 20,0 44,2 63,10 13,6 26,13 36,25 7,9 13,19 16,30 1,7 3,15 3,22zm113 -397c1,0 2,-1 3,-1 9,-3 18,-6 27,-9 8,-3 16,-6 24,-8 4,-1 7,-2 11,-4l0 0 1 0c4,-2 12,-5 14,-9 2,-4 3,-9 3,-13l0 -85c0,-3 -1,-6 -1,-9 -1,-3 -3,-5 -5,-7 -3,-3 -8,-6 -13,-7 -7,-3 -17,-3 -25,-3 -7,0 -16,1 -23,3 -4,2 -9,4 -12,7 -2,2 -4,5 -5,8 -1,3 -1,6 -1,9l0 130zm273 0c6,-2 11,-4 17,-6 6,-2 12,-4 18,-6 6,-2 11,-4 17,-6 2,-1 5,-2 7,-2 2,-1 4,-1 7,-2 5,-2 11,-5 14,-10 2,-4 4,-8 4,-13l0 -86c0,-3 -1,-6 -1,-9 -1,-3 -3,-5 -5,-7 -3,-3 -8,-6 -13,-7 -7,-3 -17,-3 -25,-3 -7,0 -16,1 -23,3 -4,2 -9,4 -12,7 -2,2 -4,5 -5,8 -1,3 -1,6 -1,10l0 130zm-461 680l0 -256 -1 0 0 -18c0,-3 -1,-6 -1,-9 -1,-3 -3,-5 -5,-7 -3,-3 -8,-5 -12,-7 -7,-3 -17,-3 -25,-3 -7,0 -16,1 -23,3 -4,2 -9,4 -12,7 -2,2 -4,5 -5,8 -1,3 -1,6 -1,9l0 290c0,3 1,6 1,9 1,3 2,5 4,7 3,3 8,6 12,7 7,3 16,3 23,3 8,0 17,-1 25,-3 4,-2 9,-4 12,-7 2,-2 4,-4 5,-7 1,-3 1,-6 1,-8l0 -18 1 0zm-1208 -85l0 -630c0,-35 28,-63 63,-63l0 0c35,0 63,28 63,63l0 630c0,35 -28,63 -63,63l0 0c-35,0 -63,-28 -63,-63zm-204 -131l0 -368c0,-35 28,-63 63,-63l0 0c35,0 63,28 63,63l0 368c0,35 -28,63 -63,63l0 0c-35,0 -63,-28 -63,-63zm-204 131l0 -614 0 -16c0,-34 27,-61 60,-63l0 0 2 0 2 0 0 0 2 0 2 0 0 0c33,2 60,29 60,63l0 16 0 614c0,35 -28,63 -63,63l0 0c-35,0 -63,-28 -63,-63z"/>
 </g>
</svg>
